<?xml version="1.0" encoding="UTF-8" standalone="no"?>
<!DOCTYPE svg PUBLIC "-//W3C//DTD SVG 1.1//EN"
 "http://www.w3.org/Graphics/SVG/1.1/DTD/svg11.dtd">
<!-- Generated by graphviz version 2.43.0 (0)
 -->
<!-- Title: localization Pages: 1 -->
<svg width="998pt" height="494pt"
 viewBox="0.00 0.00 998.00 493.62" xmlns="http://www.w3.org/2000/svg" xmlns:xlink="http://www.w3.org/1999/xlink">
<g id="graph0" class="graph" transform="scale(1 1) rotate(0) translate(4 489.62)">
<title>localization</title>
<polygon fill="white" stroke="transparent" points="-4,4 -4,-489.62 994,-489.62 994,4 -4,4"/>
<g id="clust1" class="cluster">
<title>cluster_cam</title>
<path fill="#eef4ff" stroke="#84adff" d="M398,-400.62C398,-400.62 665,-400.62 665,-400.62 671,-400.62 677,-406.62 677,-412.62 677,-412.62 677,-465.62 677,-465.62 677,-471.62 671,-477.62 665,-477.62 665,-477.62 398,-477.62 398,-477.62 392,-477.62 386,-471.62 386,-465.62 386,-465.62 386,-412.62 386,-412.62 386,-406.62 392,-400.62 398,-400.62"/>
<text text-anchor="middle" x="531.5" y="-464.82" font-family="Noto Sans CJK TC" font-size="11.00">rs_launch.py &#160;(realsense2_camera)</text>
</g>
<g id="clust2" class="cluster">
<title>cluster_calib</title>
<path fill="#effaf6" stroke="#3ccb7f" d="M20,-8C20,-8 160,-8 160,-8 166,-8 172,-14 172,-20 172,-20 172,-339.62 172,-339.62 172,-345.62 166,-351.62 160,-351.62 160,-351.62 20,-351.62 20,-351.62 14,-351.62 8,-345.62 8,-339.62 8,-339.62 8,-20 8,-20 8,-14 14,-8 20,-8"/>
<text text-anchor="middle" x="90" y="-338.82" font-family="Noto Sans CJK TC" font-size="11.00">field_calib &#160;(相機外參)</text>
</g>
<g id="clust3" class="cluster">
<title>cluster_loc</title>
<path fill="#fff6ed" stroke="#f79009" d="M512,-140C512,-140 851,-140 851,-140 857,-140 863,-146 863,-152 863,-152 863,-216 863,-216 863,-222 857,-228 851,-228 851,-228 512,-228 512,-228 506,-228 500,-222 500,-216 500,-216 500,-152 500,-152 500,-146 506,-140 512,-140"/>
<text text-anchor="middle" x="681.5" y="-215.2" font-family="Noto Sans CJK TC" font-size="11.00">aruco_test &#160;(機器人定位)</text>
</g>
<!-- cam -->
<g id="node1" class="node">
<title>cam</title>
<path fill="#d1e0ff" stroke="#98a2b3" d="M657,-447.12C657,-447.12 547,-447.12 547,-447.12 541,-447.12 535,-441.12 535,-435.12 535,-435.12 535,-423.12 535,-423.12 535,-417.12 541,-411.12 547,-411.12 547,-411.12 657,-411.12 657,-411.12 663,-411.12 669,-417.12 669,-423.12 669,-423.12 669,-435.12 669,-435.12 669,-441.12 663,-447.12 657,-447.12"/>
<text text-anchor="middle" x="602" y="-432.12" font-family="Noto Sans CJK TC" font-size="10.00">realsense2_camera_node</text>
<text text-anchor="middle" x="602" y="-421.12" font-family="Noto Sans CJK TC" font-size="10.00">1280x720 @30</text>
</g>
<!-- fc -->
<g id="node4" class="node">
<title>fc</title>
<path fill="#d3f8e2" stroke="#98a2b3" d="M151.5,-200C151.5,-200 32.5,-200 32.5,-200 26.5,-200 20.5,-194 20.5,-188 20.5,-188 20.5,-160 20.5,-160 20.5,-154 26.5,-148 32.5,-148 32.5,-148 151.5,-148 151.5,-148 157.5,-148 163.5,-154 163.5,-160 163.5,-160 163.5,-188 163.5,-188 163.5,-194 157.5,-200 151.5,-200"/>
<text text-anchor="middle" x="92" y="-188" font-family="Noto Sans CJK TC" font-size="10.00">field_calib_node</text>
<text text-anchor="middle" x="92" y="-177" font-family="Noto Sans CJK TC" font-size="10.00">① live: 桌緣殘差監控</text>
<text text-anchor="middle" x="92" y="-166" font-family="Noto Sans CJK TC" font-size="10.00">② calibrate: 抓邊 + 6DoF LM</text>
<text text-anchor="middle" x="92" y="-155" font-family="Noto Sans CJK TC" font-size="10.00"> &#160;&#160;初值 = 深度平面 or 目前 TF</text>
</g>
<!-- cam&#45;&gt;fc -->
<g id="edge1" class="edge">
<title>cam&#45;&gt;fc</title>
<path fill="none" stroke="#667085" d="M556.71,-411.09C545.48,-407.27 533.39,-403.5 522,-400.62 392.72,-367.95 337.34,-425.01 226,-351.62 175.06,-318.05 190.04,-283.7 152,-236 144.19,-226.2 135,-216.23 126.21,-207.28"/>
<polygon fill="#667085" stroke="#667085" points="128.49,-204.61 118.94,-200.01 123.54,-209.56 128.49,-204.61"/>
<text text-anchor="middle" x="282" y="-308.43" font-family="Noto Sans CJK TC" font-size="9.00">color image + camera_info</text>
<text text-anchor="middle" x="282" y="-298.43" font-family="Noto Sans CJK TC" font-size="9.00">depth + camera_info</text>
</g>
<!-- pnp -->
<g id="node6" class="node">
<title>pnp</title>
<path fill="#fee4c8" stroke="#98a2b3" d="M672,-200C672,-200 520,-200 520,-200 514,-200 508,-194 508,-188 508,-188 508,-160 508,-160 508,-154 514,-148 520,-148 520,-148 672,-148 672,-148 678,-148 684,-154 684,-160 684,-160 684,-188 684,-188 684,-194 678,-200 672,-200"/>
<text text-anchor="middle" x="596" y="-188" font-family="Noto Sans CJK TC" font-size="10.00">pnp_duck_node</text>
<text text-anchor="middle" x="596" y="-177" font-family="Noto Sans CJK TC" font-size="10.00">① solvePnP IPPE_SQUARE</text>
<text text-anchor="middle" x="596" y="-166" font-family="Noto Sans CJK TC" font-size="10.00">② 沿視線射線移到 z = target_height</text>
<text text-anchor="middle" x="596" y="-155" font-family="Noto Sans CJK TC" font-size="10.00">③ 3&#45;DoF LM (x, y, yaw)</text>
</g>
<!-- cam&#45;&gt;pnp -->
<g id="edge2" class="edge">
<title>cam&#45;&gt;pnp</title>
<path fill="none" stroke="#667085" d="M621.39,-410.72C629.4,-402.23 637.79,-391.33 642,-379.62 663.58,-319.55 662.27,-296.53 642,-236 638.72,-226.19 633.16,-216.69 627.03,-208.23"/>
<polygon fill="#667085" stroke="#667085" points="629.65,-205.91 620.76,-200.14 624.12,-210.19 629.65,-205.91"/>
<text text-anchor="middle" x="713" y="-303.43" font-family="Noto Sans CJK TC" font-size="9.00">color image + camera_info</text>
</g>
<!-- homo -->
<g id="node7" class="node">
<title>homo</title>
<path fill="#ffffff" stroke="#98a2b3" stroke-dasharray="5,2" d="M842.5,-194.5C842.5,-194.5 721.5,-194.5 721.5,-194.5 715.5,-194.5 709.5,-188.5 709.5,-182.5 709.5,-182.5 709.5,-165.5 709.5,-165.5 709.5,-159.5 715.5,-153.5 721.5,-153.5 721.5,-153.5 842.5,-153.5 842.5,-153.5 848.5,-153.5 854.5,-159.5 854.5,-165.5 854.5,-165.5 854.5,-182.5 854.5,-182.5 854.5,-188.5 848.5,-194.5 842.5,-194.5"/>
<text text-anchor="middle" x="782" y="-182.5" font-family="Noto Sans CJK TC" font-size="10.00">homography_duck_node</text>
<text text-anchor="middle" x="782" y="-171.5" font-family="Noto Sans CJK TC" font-size="10.00">地面 H + 4 角射線 + 3&#45;DoF LM</text>
<text text-anchor="middle" x="782" y="-160.5" font-family="Noto Sans CJK TC" font-size="10.00">（比較用，可不開）</text>
</g>
<!-- cam&#45;&gt;homo -->
<g id="edge3" class="edge">
<title>cam&#45;&gt;homo</title>
<path fill="none" stroke="#667085" stroke-dasharray="5,2" d="M669.03,-416.43C706.76,-406.11 751,-386.93 775,-351.62 804.96,-307.55 797.49,-241.99 789.59,-204.38"/>
<polygon fill="#667085" stroke="#667085" points="792.99,-203.54 787.38,-194.55 786.16,-205.08 792.99,-203.54"/>
</g>
<!-- tf -->
<g id="node8" class="node">
<title>tf</title>
<path fill="#fef0c7" stroke="#f79009" d="M609,-322.6C609,-324.68 551.18,-326.38 480,-326.38 408.82,-326.38 351,-324.68 351,-322.6 351,-322.6 351,-288.65 351,-288.65 351,-286.57 408.82,-284.87 480,-284.87 551.18,-284.87 609,-286.57 609,-288.65 609,-288.65 609,-322.6 609,-322.6"/>
<path fill="none" stroke="#f79009" d="M609,-322.6C609,-320.52 551.18,-318.83 480,-318.83 408.82,-318.83 351,-320.52 351,-322.6"/>
<text text-anchor="middle" x="480" y="-308.62" font-family="Noto Sans CJK TC" font-size="10.00">TF tree</text>
<text text-anchor="middle" x="480" y="-297.62" font-family="Noto Sans CJK TC" font-size="10.00">map → camera_link → camera_color_optical_frame</text>
</g>
<!-- cam&#45;&gt;tf -->
<g id="edge4" class="edge">
<title>cam&#45;&gt;tf</title>
<path fill="none" stroke="#667085" stroke-dasharray="5,2" d="M561.99,-410.97C546.87,-403.05 530.34,-392.52 518,-379.62 506.12,-367.21 497.02,-350.36 490.7,-335.97"/>
<polygon fill="#667085" stroke="#667085" points="493.83,-334.38 486.78,-326.48 487.37,-337.06 493.83,-334.38"/>
<text text-anchor="middle" x="579" y="-372.43" font-family="Noto Sans CJK TC" font-size="9.00">camera_link →</text>
<text text-anchor="middle" x="579" y="-362.43" font-family="Noto Sans CJK TC" font-size="9.00">camera_color_optical_frame</text>
</g>
<!-- camtf -->
<g id="node2" class="node">
<title>camtf</title>
<path fill="#ffffff" stroke="#98a2b3" stroke-dasharray="5,2" d="M497.5,-449.62C497.5,-449.62 406.5,-449.62 406.5,-449.62 400.5,-449.62 394.5,-443.62 394.5,-437.62 394.5,-437.62 394.5,-420.62 394.5,-420.62 394.5,-414.62 400.5,-408.62 406.5,-408.62 406.5,-408.62 497.5,-408.62 497.5,-408.62 503.5,-408.62 509.5,-414.62 509.5,-420.62 509.5,-420.62 509.5,-437.62 509.5,-437.62 509.5,-443.62 503.5,-449.62 497.5,-449.62"/>
<text text-anchor="middle" x="452" y="-437.62" font-family="Noto Sans CJK TC" font-size="10.00">camera_static_tf</text>
<text text-anchor="middle" x="452" y="-426.62" font-family="Noto Sans CJK TC" font-size="10.00">cam_tf.enable = false</text>
<text text-anchor="middle" x="452" y="-415.62" font-family="Noto Sans CJK TC" font-size="10.00">(手動備援)</text>
</g>
<!-- camtf&#45;&gt;tf -->
<g id="edge8" class="edge">
<title>camtf&#45;&gt;tf</title>
<path fill="none" stroke="#667085" stroke-dasharray="5,2" d="M449.03,-408.61C447.56,-394.73 446.88,-375.76 451,-359.62 453.14,-351.24 456.91,-342.76 461.04,-335.12"/>
<polygon fill="#667085" stroke="#667085" points="464.19,-336.67 466.17,-326.26 458.13,-333.16 464.19,-336.67"/>
<text text-anchor="middle" x="469.5" y="-367.43" font-family="Noto Sans CJK TC" font-size="9.00">預設關閉</text>
</g>
<!-- fieldyaml -->
<g id="node3" class="node">
<title>fieldyaml</title>
<polygon fill="#ffffff" stroke="#98a2b3" points="158.5,-323.62 15.5,-323.62 15.5,-287.62 164.5,-287.62 164.5,-317.62 158.5,-323.62"/>
<polyline fill="none" stroke="#98a2b3" points="158.5,-323.62 158.5,-317.62 "/>
<polyline fill="none" stroke="#98a2b3" points="164.5,-317.62 158.5,-317.62 "/>
<text text-anchor="middle" x="90" y="-308.62" font-family="Noto Sans CJK TC" font-size="10.00">field.yaml</text>
<text text-anchor="middle" x="90" y="-297.62" font-family="Noto Sans CJK TC" font-size="10.00">桌子尺寸 length/depth/count</text>
</g>
<!-- fieldyaml&#45;&gt;fc -->
<g id="edge5" class="edge">
<title>fieldyaml&#45;&gt;fc</title>
<path fill="none" stroke="#667085" stroke-dasharray="5,2" d="M90.27,-287.41C90.57,-267.89 91.07,-235.52 91.45,-210.52"/>
<polygon fill="#667085" stroke="#667085" points="94.95,-210.37 91.61,-200.31 87.96,-210.26 94.95,-210.37"/>
<text text-anchor="middle" x="118.5" y="-243.8" font-family="Noto Sans CJK TC" font-size="9.00">每次校正重讀</text>
</g>
<!-- camtfyaml -->
<g id="node5" class="node">
<title>camtfyaml</title>
<polygon fill="#ffffff" stroke="#98a2b3" points="146,-52 16,-52 16,-16 152,-16 152,-46 146,-52"/>
<polyline fill="none" stroke="#98a2b3" points="146,-52 146,-46 "/>
<polyline fill="none" stroke="#98a2b3" points="152,-46 146,-46 "/>
<text text-anchor="middle" x="84" y="-37" font-family="Noto Sans CJK TC" font-size="10.00">cam_tf.yaml + debug PNG</text>
<text text-anchor="middle" x="84" y="-26" font-family="Noto Sans CJK TC" font-size="10.00">（下次啟動載入）</text>
</g>
<!-- fc&#45;&gt;camtfyaml -->
<g id="edge6" class="edge">
<title>fc&#45;&gt;camtfyaml</title>
<path fill="none" stroke="#667085" stroke-dasharray="5,2" d="M83.46,-147.75C80.84,-138.78 78.3,-128.54 77,-119 74.42,-100.09 76.29,-78.64 78.74,-62.15"/>
<polygon fill="#667085" stroke="#667085" points="82.22,-62.55 80.39,-52.11 75.31,-61.41 82.22,-62.55"/>
</g>
<!-- fc&#45;&gt;tf -->
<g id="edge7" class="edge">
<title>fc&#45;&gt;tf</title>
<path fill="none" stroke="#3ccb7f" stroke-width="2" d="M163.71,-198.96C234.47,-222.6 341.88,-258.48 411.51,-281.74"/>
<polygon fill="#3ccb7f" stroke="#3ccb7f" stroke-width="2" points="410.48,-285.09 421.07,-284.94 412.7,-278.45 410.48,-285.09"/>
<text text-anchor="middle" x="401" y="-248.8" font-family="Noto Sans CJK TC" font-size="9.00">/tf_static: map → camera_link</text>
<text text-anchor="middle" x="401" y="-238.8" font-family="Noto Sans CJK TC" font-size="9.00">（唯一發布者，通過檢查才更新）</text>
</g>
<!-- app -->
<g id="node9" class="node">
<title>app</title>
<path fill="#f4f3ff" stroke="#9b8afb" d="M352.5,-52C352.5,-52 255.5,-52 255.5,-52 249.5,-52 243.5,-46 243.5,-40 243.5,-40 243.5,-28 243.5,-28 243.5,-22 249.5,-16 255.5,-16 255.5,-16 352.5,-16 352.5,-16 358.5,-16 364.5,-22 364.5,-28 364.5,-28 364.5,-40 364.5,-40 364.5,-46 358.5,-52 352.5,-52"/>
<text text-anchor="middle" x="304" y="-37" font-family="Noto Sans CJK TC" font-size="10.00">App Gateway → 瀏覽器</text>
<text text-anchor="middle" x="304" y="-26" font-family="Noto Sans CJK TC" font-size="10.00">(BEST_EFFORT 訂閱)</text>
</g>
<!-- fc&#45;&gt;app -->
<g id="edge15" class="edge">
<title>fc&#45;&gt;app</title>
<path fill="none" stroke="#9b8afb" d="M88.09,-147.63C86.74,-129.22 88.25,-104.87 102,-89 110.91,-78.72 178.66,-61.96 233.28,-49.84"/>
<polygon fill="#9b8afb" stroke="#9b8afb" points="234.29,-53.2 243.31,-47.63 232.79,-46.36 234.29,-53.2"/>
<text text-anchor="middle" x="187.5" y="-111.8" font-family="Noto Sans CJK TC" font-size="9.00">~/live/overlay/compressed (JPEG, 10 Hz)</text>
<text text-anchor="middle" x="187.5" y="-101.8" font-family="Noto Sans CJK TC" font-size="9.00">~/calib/overlay(/compressed)</text>
<text text-anchor="middle" x="187.5" y="-91.8" font-family="Noto Sans CJK TC" font-size="9.00">~/debug/image</text>
</g>
<!-- pnp&#45;&gt;app -->
<g id="edge12" class="edge">
<title>pnp&#45;&gt;app</title>
<path fill="none" stroke="#667085" stroke-dasharray="5,2" d="M540.15,-147.98C520.94,-139.12 499.4,-128.89 480,-119 455.54,-106.53 450.58,-101.24 426,-89 402.78,-77.44 376.52,-65.66 354.33,-56.06"/>
<polygon fill="#667085" stroke="#667085" points="355.66,-52.82 345.09,-52.09 352.9,-59.26 355.66,-52.82"/>
<text text-anchor="middle" x="512.5" y="-101.8" font-family="Noto Sans CJK TC" font-size="9.00">~/debug/image</text>
</g>
<!-- out -->
<g id="node10" class="node">
<title>out</title>
<path fill="#fee4c8" stroke="#f79009" stroke-width="2" d="M584.5,-60C584.5,-60 453.5,-60 453.5,-60 447.5,-60 441.5,-54 441.5,-48 441.5,-48 441.5,-20 441.5,-20 441.5,-14 447.5,-8 453.5,-8 453.5,-8 584.5,-8 584.5,-8 590.5,-8 596.5,-14 596.5,-20 596.5,-20 596.5,-48 596.5,-48 596.5,-54 590.5,-60 584.5,-60"/>
<text text-anchor="middle" x="519" y="-48" font-family="Noto Sans CJK TC" font-size="10.00">/pose/global</text>
<text text-anchor="middle" x="519" y="-37" font-family="Noto Sans CJK TC" font-size="10.00">PoseWithCovarianceStamped</text>
<text text-anchor="middle" x="519" y="-26" font-family="Noto Sans CJK TC" font-size="10.00">最終定位 (x, y, yaw), z = 0.2</text>
<text text-anchor="middle" x="519" y="-15" font-family="Noto Sans CJK TC" font-size="10.00">yaw 含 tag 安裝偏移 −90°</text>
</g>
<!-- pnp&#45;&gt;out -->
<g id="edge11" class="edge">
<title>pnp&#45;&gt;out</title>
<path fill="none" stroke="#f79009" stroke-width="2" d="M581.88,-147.69C569.56,-125.61 551.58,-93.39 538,-69.05"/>
<polygon fill="#f79009" stroke="#f79009" stroke-width="2" points="540.96,-67.18 533.03,-60.15 534.85,-70.59 540.96,-67.18"/>
<text text-anchor="middle" x="620.5" y="-106.8" font-family="Noto Sans CJK TC" font-size="9.00">plane LM 結果</text>
<text text-anchor="middle" x="620.5" y="-96.8" font-family="Noto Sans CJK TC" font-size="9.00">(LM 不可用時退回原始 PnP)</text>
</g>
<!-- aux -->
<g id="node11" class="node">
<title>aux</title>
<polygon fill="#ffffff" stroke="#98a2b3" points="818.5,-54.5 621.5,-54.5 621.5,-13.5 824.5,-13.5 824.5,-48.5 818.5,-54.5"/>
<polyline fill="none" stroke="#98a2b3" points="818.5,-54.5 818.5,-48.5 "/>
<polyline fill="none" stroke="#98a2b3" points="824.5,-48.5 818.5,-48.5 "/>
<text text-anchor="middle" x="723" y="-42.5" font-family="Noto Sans CJK TC" font-size="10.00">/pose/global/pnp（原始 PnP，z 估出來）</text>
<text text-anchor="middle" x="723" y="-31.5" font-family="Noto Sans CJK TC" font-size="10.00">/pose/global/pnp_plane_lm（LM）</text>
<text text-anchor="middle" x="723" y="-20.5" font-family="Noto Sans CJK TC" font-size="10.00">TF: pnp_duck_1 / pnp_plane_lm_duck_1</text>
</g>
<!-- pnp&#45;&gt;aux -->
<g id="edge13" class="edge">
<title>pnp&#45;&gt;aux</title>
<path fill="none" stroke="#667085" stroke-dasharray="5,2" d="M647.11,-147.98C659.95,-140 672.92,-130.26 683,-119 697.04,-103.3 707.16,-81.8 713.71,-64.48"/>
<polygon fill="#667085" stroke="#667085" points="717.08,-65.44 717.15,-54.84 710.49,-63.08 717.08,-65.44"/>
</g>
<!-- aux2 -->
<g id="node12" class="node">
<title>aux2</title>
<polygon fill="#ffffff" stroke="#98a2b3" points="984,-52 850,-52 850,-16 990,-16 990,-46 984,-52"/>
<polyline fill="none" stroke="#98a2b3" points="984,-52 984,-46 "/>
<polyline fill="none" stroke="#98a2b3" points="990,-46 984,-46 "/>
<text text-anchor="middle" x="920" y="-37" font-family="Noto Sans CJK TC" font-size="10.00">/pose/global/homography</text>
<text text-anchor="middle" x="920" y="-26" font-family="Noto Sans CJK TC" font-size="10.00">/duck/pose/plane_lm</text>
</g>
<!-- homo&#45;&gt;aux2 -->
<g id="edge14" class="edge">
<title>homo&#45;&gt;aux2</title>
<path fill="none" stroke="#667085" stroke-dasharray="5,2" d="M801.77,-153.23C826.57,-128.43 869.06,-85.94 895.78,-59.22"/>
<polygon fill="#667085" stroke="#667085" points="898.28,-61.67 902.88,-52.12 893.33,-56.72 898.28,-61.67"/>
</g>
<!-- tf&#45;&gt;pnp -->
<g id="edge9" class="edge">
<title>tf&#45;&gt;pnp</title>
<path fill="none" stroke="#667085" d="M483.7,-284.96C487.23,-270.29 493.74,-250.37 505,-236 514.06,-224.45 525.92,-214.31 538.09,-205.8"/>
<polygon fill="#667085" stroke="#667085" points="540.15,-208.63 546.52,-200.16 536.26,-202.81 540.15,-208.63"/>
<text text-anchor="middle" x="572.5" y="-248.8" font-family="Noto Sans CJK TC" font-size="9.00">lookup map → optical</text>
<text text-anchor="middle" x="572.5" y="-238.8" font-family="Noto Sans CJK TC" font-size="9.00">每 camera_pose_refresh_s 重查</text>
</g>
<!-- tf&#45;&gt;homo -->
<g id="edge10" class="edge">
<title>tf&#45;&gt;homo</title>
<path fill="none" stroke="#667085" stroke-dasharray="5,2" d="M559.74,-285.05C587.5,-277.25 618.54,-267.4 646,-256 669.88,-246.08 674.69,-241.07 697,-228 712.16,-219.12 728.59,-208.99 742.93,-199.99"/>
<polygon fill="#667085" stroke="#667085" points="744.97,-202.84 751.56,-194.55 741.24,-196.92 744.97,-202.84"/>
</g>
<!-- app&#45;&gt;fc -->
<g id="edge16" class="edge">
<title>app&#45;&gt;fc</title>
<path fill="none" stroke="#9b8afb" stroke-dasharray="5,2" d="M302.63,-52.29C300.21,-71.24 293.52,-101.31 275,-119 247.86,-144.93 208.89,-158.49 173.89,-165.54"/>
<polygon fill="#9b8afb" stroke="#9b8afb" points="172.84,-162.18 163.65,-167.45 174.12,-169.06 172.84,-162.18"/>
<text text-anchor="middle" x="356.5" y="-101.8" font-family="Noto Sans CJK TC" font-size="9.00">寫 field.yaml + 呼叫 ~/calibrate</text>
</g>
</g>
</svg>
